<svg width="12" height="12" viewBox="0 0 12 12" fill="none" xmlns="http://www.w3.org/2000/svg">
    <!-- Первый путь -->
    <path id="path1" d="M9.00014 8.37501C8.92014 8.37501 8.84514 8.35001 8.77514 8.30001C8.61014 8.17501 8.57514 7.94001 8.70014 7.77501C9.48514 6.73001 9.48514 5.27001 8.70014 4.22501C8.57514 4.06001 8.61014 3.82501 8.77514 3.70001C8.94014 3.57501 9.17514 3.61001 9.30014 3.77501C10.2801 5.08501 10.2801 6.91501 9.30014 8.22501C9.22514 8.32501 9.11514 8.37501 9.00014 8.37501Z" fill="#BEB8C8">
        <animate attributeName="opacity" from="1" to="0" dur="2s" begin="1s" repeatCount="indefinite" />
    </path>
    
    <!-- Второй путь -->
    <path id="path2" d="M9.91518 9.62501C9.83518 9.62501 9.76018 9.60001 9.69018 9.55001C9.52518 9.42501 9.49018 9.19001 9.61518 9.02501C10.9502 7.24501 10.9502 4.75501 9.61518 2.97501C9.49018 2.81001 9.52518 2.57501 9.69018 2.45001C9.85518 2.32501 10.0902 2.36001 10.2152 2.52501C11.7502 4.57001 11.7502 7.43001 10.2152 9.47501C10.1452 9.57501 10.0302 9.62501 9.91518 9.62501Z" fill="#BEB8C8">
        <animate attributeName="opacity" from="1" to="0" dur="2s" begin="0s" repeatCount="indefinite" />
    </path>
    
    <!-- Третий путь без изменений -->
    <path d="M7.01 1.89001C6.45 1.58001 5.735 1.66001 5.005 2.11501L3.545 3.03001C3.445 3.09001 3.33 3.12501 3.215 3.12501H2.75H2.5C1.29 3.12501 0.625 3.79001 0.625 5.00001V7.00001C0.625 8.21001 1.29 8.87501 2.5 8.87501H2.75H3.215C3.33 8.87501 3.445 8.91001 3.545 8.97001L5.005 9.88501C5.445 10.16 5.875 10.295 6.275 10.295C6.535 10.295 6.785 10.235 7.01 10.11C7.565 9.80001 7.875 9.15501 7.875 8.29501V3.70501C7.875 2.84501 7.565 2.20001 7.01 1.89001Z" fill="#BEB8C8"/>
</svg>